<svg width="18" height="18" viewBox="0 0 18 18" fill="none" xmlns="http://www.w3.org/2000/svg">
<path d="M17.7803 0.219834C17.6397 0.0792307 17.449 0.000244141 17.2501 0.000244141C17.0512 0.000244141 16.8605 0.0792307 16.7198 0.219834L9.00008 7.93958L1.28033 0.219834C1.13969 0.0792307 0.948957 0.000244141 0.750084 0.000244141C0.551211 0.000244141 0.36048 0.0792307 0.219834 0.219834C0.0792307 0.36048 0.000244141 0.551211 0.000244141 0.750084C0.000244141 0.948957 0.0792307 1.13969 0.219834 1.28033L7.93958 9.00008L0.219834 16.7198C0.0792307 16.8605 0.000244141 17.0512 0.000244141 17.2501C0.000244141 17.449 0.0792307 17.6397 0.219834 17.7803C0.36048 17.9209 0.551211 17.9999 0.750084 17.9999C0.948957 17.9999 1.13969 17.9209 1.28033 17.7803L9.00008 10.0606L16.7198 17.7803C16.8605 17.9209 17.0512 17.9999 17.2501 17.9999C17.449 17.9999 17.6397 17.9209 17.7803 17.7803C17.9209 17.6397 17.9999 17.449 17.9999 17.2501C17.9999 17.0512 17.9209 16.8605 17.7803 16.7198L10.0606 9.00008L17.7803 1.28033C17.9209 1.13969 17.9999 0.948957 17.9999 0.750084C17.9999 0.551211 17.9209 0.36048 17.7803 0.219834Z" fill="#EF5B2E"/>
</svg>
